<svg xmlns="http://www.w3.org/2000/svg" xmlns:xlink="http://www.w3.org/1999/xlink" viewBox="0 0 154.99 40"><defs><style>.cls-1{fill:none;clip-rule:evenodd;}.cls-2{clip-path:url(#clip-path);}.cls-3{fill:#17d65e;}.cls-4{clip-path:url(#clip-path-2);}.cls-5{fill:#fff;}</style><clipPath id="clip-path"><path class="cls-1" d="M84.34,18.67a1.1,1.1,0,0,0,1.11-1.89c-4.33-2.59-11.2-2.84-15.32-1.58a1.1,1.1,0,0,0-.73,1.38,1.09,1.09,0,0,0,1.36.73c3.6-1.1,9.81-.89,13.58,1.36ZM84.21,22a.91.91,0,0,0-.3-1.26,16.92,16.92,0,0,0-13.12-1.56.91.91,0,1,0,.53,1.75A15.28,15.28,0,0,1,83,22.3a.91.91,0,0,0,1.25-.3Zm-1.43,3.2a.73.73,0,0,0-.24-1c-3.08-1.89-6.9-2.33-11.35-1.31a.73.73,0,0,0,.33,1.43c4.06-.94,7.52-.56,10.26,1.13a.73.73,0,0,0,1-.24ZM77.43,8.25A11.75,11.75,0,1,1,65.74,20,11.72,11.72,0,0,1,77.43,8.25ZM97.53,19.1c2.46.6,3.46,1.53,3.46,3.22,0,2-1.52,3.28-3.86,3.28a6.58,6.58,0,0,1-4.45-1.71.13.13,0,0,1,0-.18l1.1-1.33a.15.15,0,0,1,.09,0,.1.1,0,0,1,.1,0,4.62,4.62,0,0,0,3.21,1.33c1.06,0,1.72-.46,1.72-1.2s-.32-1.05-2.26-1.49c-2.26-.55-3.58-1.27-3.58-3.28s1.53-3.2,3.7-3.2a5.94,5.94,0,0,1,3.88,1.35.14.14,0,0,1,0,.18l-1,1.4a.11.11,0,0,1-.09.05.12.12,0,0,1-.1,0,4.57,4.57,0,0,0-2.76-1.06c-.93,0-1.57.46-1.57,1.13s.36,1.05,2.38,1.54ZM108,21.36a2.22,2.22,0,0,0-2.13-2.42,2.25,2.25,0,0,0-2.16,2.42,2.25,2.25,0,0,0,2.16,2.42A2.19,2.19,0,0,0,108,21.36ZM106.3,17.1a3.91,3.91,0,0,1,3.81,4.26,3.91,3.91,0,0,1-3.81,4.26,3.24,3.24,0,0,1-2.54-1.16v3.26a.13.13,0,0,1-.13.14h-1.81a.13.13,0,0,1-.13-.14V17.4a.13.13,0,0,1,.13-.14h1.81a.13.13,0,0,1,.13.14v.93a3.16,3.16,0,0,1,2.54-1.23ZM115,23.79a2.26,2.26,0,0,0,2.26-2.4A2.31,2.31,0,0,0,115,19a2.26,2.26,0,0,0-2.24,2.41A2.3,2.3,0,0,0,115,23.79Zm0-6.69a4.27,4.27,0,1,1-4.34,4.29A4.25,4.25,0,0,1,115,17.1Zm9.53.16a.13.13,0,0,1,.13.14V19a.13.13,0,0,1-.13.13h-2v3.76c0,.59.26.85.84.85a2.33,2.33,0,0,0,1.06-.25.15.15,0,0,1,.13,0,.14.14,0,0,1,.06.11v1.49a.13.13,0,0,1-.07.12,3.24,3.24,0,0,1-1.69.42,2.16,2.16,0,0,1-2.4-2.46v-4h-.87a.13.13,0,0,1-.13-.13V17.4a.13.13,0,0,1,.13-.14h.87v-2a.13.13,0,0,1,.13-.13h1.81a.13.13,0,0,1,.13.13v2Zm6.93,0h3.08a.13.13,0,0,1,.13.09l2.11,5.53,1.92-5.53a.14.14,0,0,1,.13-.09h1.88a.14.14,0,0,1,.11.06.13.13,0,0,1,0,.12l-3.13,8.15c-.65,1.68-1.39,2.3-2.73,2.3a3.72,3.72,0,0,1-1.92-.5.12.12,0,0,1-.06-.17l.61-1.35a.14.14,0,0,1,.08-.07.12.12,0,0,1,.1,0,2.08,2.08,0,0,0,1,.28c.39,0,.68-.13,1-.78l-2.59-6.23H131.5v6.23a.13.13,0,0,1-.14.13h-1.8a.13.13,0,0,1-.14-.13V19.09h-.86a.13.13,0,0,1-.14-.13V17.39a.14.14,0,0,1,.14-.14h.86v-.38c0-1.79.89-2.73,2.56-2.73a4.86,4.86,0,0,1,1.5.22.12.12,0,0,1,.09.12V16a.13.13,0,0,1,0,.11.13.13,0,0,1-.12,0,3.13,3.13,0,0,0-1-.19c-.63,0-.91.33-.91,1.07v.25Zm-4,0a.13.13,0,0,1,.13.14v7.92a.13.13,0,0,1-.13.13h-1.81a.13.13,0,0,1-.13-.13V17.4a.13.13,0,0,1,.13-.14Zm-.89-3.61a1.31,1.31,0,1,1-1.3,1.31,1.3,1.3,0,0,1,1.3-1.31Zm15.9,4.4h-.33v.43h.33c.16,0,.26-.09.26-.22s-.1-.21-.26-.21Zm.21.61.36.5h-.3l-.33-.46h-.27v.46h-.26V17.82h.6c.31,0,.51.16.51.43a.41.41,0,0,1-.31.41Zm-.28-1.29a1.14,1.14,0,0,0-1.14,1.16,1.12,1.12,0,0,0,1.13,1.15,1.16,1.16,0,0,0,0-2.31Zm0,2.44a1.28,1.28,0,1,1,1.28-1.29,1.27,1.27,0,0,1-1.28,1.29Z"/></clipPath><clipPath id="clip-path-2"><path class="cls-1" d="M14.6,22.9H10.74v-6h1.17v4.9H14.6V22.9Zm2.8,0H16.21v-6H17.4v6Zm6.23-4.59-1.06.33a1,1,0,0,0-1.09-.85.86.86,0,0,0-.95.76.7.7,0,0,0,.66.68l.84.16a1.84,1.84,0,0,1,1.68,1.78A2,2,0,0,1,21.54,23a2.2,2.2,0,0,1-2.4-1.89l1.09-.28A1.21,1.21,0,0,0,21.55,22c.62,0,1-.32,1-.74s-.26-.62-.73-.72L21,20.36a1.74,1.74,0,0,1-1.58-1.72,2,2,0,0,1,2.1-1.89,2,2,0,0,1,2.16,1.56ZM30,18H28.07V22.9H26.89V18H25V16.88h5V18Zm5.38,4.91H31.59v-6h3.77V18h-2.6v1.38h2.35v1H32.76v1.4h2.6v1.1Zm7,0H41.17l-2.73-4.27V22.9H37.26v-6h1.47l2.5,4v-4h1.18v6Zm5.69-3a1.88,1.88,0,1,0,3.76,0,1.88,1.88,0,1,0-3.76,0Zm-1.22,0a3.1,3.1,0,1,1,6.2,0,3.1,3.1,0,1,1-6.2,0ZM60,22.9H58.81l-2.74-4.27V22.9H54.9v-6h1.46l2.51,4v-4H60v6Z"/></clipPath></defs><title>spotify-badge</title><g id="Layer_2" data-name="Layer 2"><g id="Layer_1-2" data-name="Layer 1"><path d="M0,5,0,35a5,5,0,0,0,5,5H150a5,5,0,0,0,5-5V5a5,5,0,0,0-5-5H5A5,5,0,0,0,0,5Z"/><g class="cls-2"><rect class="cls-3" x="64.49" y="7" width="80.42" height="26"/></g><g class="cls-4"><rect class="cls-5" x="9.49" y="15.5" width="51.8" height="8.78"/></g></g></g></svg>